<svg width="22" height="22" viewBox="0 0 22 22" fill="none" xmlns="http://www.w3.org/2000/svg">
<path d="M21.2646 1.42773C20.9799 1.19086 20.6363 1.03563 20.2704 0.978535C19.9044 0.921444 19.5299 0.964638 19.1865 1.10352L1.26561 8.33887C0.882364 8.49655 0.556131 8.76706 0.330214 9.11449C0.104298 9.46192 -0.0106183 9.86983 0.000719189 10.2841C0.0120567 10.6984 0.149111 11.0994 0.393692 11.4339C0.638273 11.7685 0.978813 12.0207 1.37011 12.1572L4.99511 13.418L7.01561 20.0996C7.04307 20.1889 7.08292 20.2738 7.13399 20.352C7.14174 20.364 7.15267 20.3729 7.16091 20.3846C7.21992 20.4669 7.29123 20.5397 7.37234 20.6003C7.39541 20.6179 7.4175 20.6344 7.44216 20.65C7.5371 20.713 7.64223 20.7591 7.75289 20.7861L7.76473 20.7871L7.77144 20.79C7.83798 20.8035 7.9057 20.8104 7.97359 20.8105C7.98012 20.8105 7.98592 20.8074 7.99239 20.8073C8.09486 20.8055 8.19642 20.7878 8.29348 20.755C8.31606 20.7473 8.33541 20.7344 8.35732 20.7251C8.4297 20.6951 8.49827 20.6567 8.56161 20.6106C8.61234 20.5678 8.66308 20.5251 8.71383 20.4824L11.416 17.499L15.4463 20.6211C15.8011 20.8973 16.2378 21.0475 16.6875 21.0478C17.1587 21.0472 17.6153 20.8847 17.9809 20.5874C18.3464 20.2901 18.5987 19.8762 18.6953 19.415L21.958 3.39844C22.0319 3.03796 22.0065 2.66416 21.8843 2.31703C21.7622 1.9699 21.548 1.6625 21.2646 1.42773ZM8.37011 13.7363C8.23146 13.8744 8.13667 14.0504 8.09765 14.2422L7.78814 15.7462L7.00408 13.1531L11.0693 11.0362L8.37011 13.7363ZM16.6719 19.04L11.9092 15.3505C11.7099 15.1966 11.46 15.1233 11.2091 15.1454C10.9583 15.1675 10.725 15.2833 10.5557 15.4697L9.69024 16.4249L9.99608 14.9384L17.0791 7.85544C17.2481 7.6866 17.3512 7.4628 17.3694 7.22456C17.3877 6.98633 17.3201 6.74942 17.1788 6.55676C17.0375 6.36409 16.8318 6.2284 16.5991 6.17428C16.3664 6.12015 16.122 6.15116 15.9101 6.26169L5.74486 11.5543L2.0205 10.1914L19.999 2.999L16.6719 19.04Z" fill="#3D5A80"/>
</svg>
