<svg width="23" height="20" viewBox="0 0 23 20" fill="none" xmlns="http://www.w3.org/2000/svg">
<path d="M22.9912 1.9502C22.9913 1.77357 22.9446 1.60006 22.8559 1.44734C22.7671 1.29463 22.6395 1.16816 22.486 1.08083C22.3324 0.993494 22.1585 0.948408 21.9819 0.950163C21.8052 0.951917 21.6322 1.00045 21.4805 1.09082C20.8952 1.4392 20.265 1.706 19.6075 1.88382C18.6684 1.07805 17.4708 0.637122 16.2335 0.641628C14.876 0.643191 13.5724 1.17222 12.5977 2.11701C11.623 3.0618 11.0537 4.34839 11.0098 5.70511C8.33382 5.27837 5.90847 3.88163 4.19629 1.78125C4.09313 1.65608 3.96138 1.55756 3.81215 1.49399C3.66293 1.43043 3.5006 1.40368 3.33887 1.416C3.17723 1.42931 3.02127 1.48179 2.88446 1.56891C2.74766 1.65603 2.63414 1.77516 2.55371 1.916C2.14124 2.63581 1.90434 3.44276 1.86226 4.27131C1.82018 5.09985 1.9741 5.92665 2.31152 6.68455L2.30957 6.6865C2.15792 6.7799 2.03276 6.91065 1.94608 7.06625C1.85939 7.22184 1.81407 7.39707 1.81445 7.57518C1.81261 7.72211 1.82143 7.86897 1.84082 8.01463C1.94296 9.27289 2.5006 10.4507 3.40918 11.3271C3.34754 11.4446 3.30993 11.5731 3.29852 11.7052C3.28712 11.8373 3.30216 11.9704 3.34277 12.0967C3.73889 13.3308 4.58127 14.3727 5.70508 15.0185C4.56332 15.46 3.3305 15.614 2.11523 15.4668C1.8903 15.4386 1.66246 15.4876 1.46908 15.6059C1.2757 15.7242 1.12826 15.9047 1.05095 16.1178C0.973634 16.3309 0.971041 16.5639 1.04359 16.7787C1.11614 16.9935 1.25953 17.1772 1.45023 17.2998C3.54033 18.6459 5.97391 19.3617 8.46 19.3613C11.2793 19.393 14.03 18.4921 16.2842 16.7988C18.5385 15.1054 20.17 12.7145 20.9248 9.998C21.2779 8.81463 21.4581 7.58647 21.46 6.35156C21.46 6.28613 21.46 6.21875 21.459 6.15137C21.9811 5.5883 22.3856 4.92667 22.6487 4.20527C22.9118 3.48386 23.0282 2.71719 22.9912 1.9502ZM19.6846 5.16211C19.5194 5.35745 19.4358 5.60891 19.4512 5.86426C19.4609 6.02926 19.46 6.19526 19.46 6.35156C19.4579 7.3951 19.305 8.43286 19.0059 9.43262C18.3894 11.744 17.015 13.7817 15.1029 15.2192C13.1909 16.6568 10.8517 17.4111 8.46 17.3613C7.60088 17.3616 6.74472 17.2606 5.90922 17.0605C6.97463 16.7172 7.97081 16.1879 8.8516 15.4971C9.01383 15.3693 9.13255 15.1945 9.19149 14.9967C9.25042 14.7988 9.24668 14.5875 9.18078 14.3918C9.11487 14.1961 8.99003 14.0257 8.82338 13.9038C8.65673 13.7818 8.45645 13.7145 8.25 13.7109C7.41883 13.698 6.62513 13.363 6.03613 12.7764C6.18555 12.748 6.33399 12.7129 6.48145 12.6709C6.69746 12.6094 6.88649 12.477 7.01811 12.295C7.14973 12.1131 7.21627 11.8921 7.20702 11.6677C7.19778 11.4433 7.11328 11.2285 6.96714 11.058C6.82099 10.8874 6.62171 10.771 6.40137 10.7275C5.91891 10.6323 5.46492 10.427 5.07469 10.1277C4.68445 9.82844 4.3685 9.4432 4.15137 9.00195C4.3321 9.02662 4.51398 9.04194 4.69629 9.04785C4.91287 9.05112 5.12489 8.98542 5.30167 8.86025C5.47845 8.73508 5.61084 8.55693 5.67969 8.35156C5.74567 8.14432 5.74227 7.92122 5.67002 7.71609C5.59777 7.51096 5.46059 7.33498 5.2793 7.21484C4.83945 6.92181 4.47914 6.52426 4.23066 6.05779C3.98217 5.59133 3.85326 5.07052 3.85547 4.542C3.85547 4.4756 3.85742 4.40919 3.86133 4.34376C6.10259 6.43401 9.00965 7.66621 12.0703 7.82325C12.2248 7.82934 12.3787 7.80024 12.5203 7.73815C12.6619 7.67606 12.7875 7.58261 12.8877 7.46485C12.9869 7.34595 13.0571 7.20566 13.0929 7.05501C13.1286 6.90436 13.1289 6.74747 13.0937 6.59669C13.0365 6.35805 13.0074 6.11356 13.0068 5.86817C13.0077 5.0127 13.348 4.19254 13.9529 3.58763C14.5578 2.98273 15.3779 2.6425 16.2334 2.6416C16.6735 2.64042 17.1091 2.7305 17.5127 2.90614C17.9163 3.08179 18.279 3.3392 18.5781 3.66211C18.6935 3.78619 18.8386 3.8787 18.9998 3.93084C19.161 3.98298 19.3328 3.99302 19.499 3.96C19.9098 3.88005 20.3147 3.77239 20.7109 3.63774C20.4407 4.19071 20.0953 4.70368 19.6846 5.16211Z" fill="#3D5A80"/>
</svg>
